<!DOCTYPE svg PUBLIC "-//W3C//DTD SVG 1.1//EN" "http://www.w3.org/Graphics/SVG/1.1/DTD/svg11.dtd">
<!-- Uploaded to: SVG Repo, www.svgrepo.com, Transformed by: SVG Repo Mixer Tools -->
<svg fill="#4290f5" width="800px" height="800px" viewBox="0 0 512 512" version="1.1" xml:space="preserve" xmlns="http://www.w3.org/2000/svg" xmlns:xlink="http://www.w3.org/1999/xlink" stroke="#4290f5">
<g id="SVGRepo_bgCarrier" stroke-width="0"/>
<g id="SVGRepo_tracerCarrier" stroke-linecap="round" stroke-linejoin="round"/>
<g id="SVGRepo_iconCarrier"> <g id="A_-_130_x2C__target_x2C__success_x2C__goal_x2C__focus"> <g> <path d="M231.049,131.553c0.631,0.781,1.573,1.216,2.549,1.216c0.269,0,0.54-0.033,0.807-0.101l22.543-5.723l93.708,115.557 c0.649,0.799,1.595,1.213,2.55,1.213c0.726,0,1.457-0.24,2.063-0.732c1.407-1.142,1.622-3.207,0.482-4.613L262.039,122.81 l10.271-20.833c0.564-1.147,0.411-2.519-0.393-3.513l-14.48-17.885c-0.704-0.869-1.8-1.323-2.911-1.196 c-1.111,0.124-2.083,0.803-2.578,1.805l-8.963,18.126l-7.762-9.572c-1.141-1.406-3.208-1.623-4.613-0.481 c-1.407,1.141-1.622,3.207-0.481,4.613l7.762,9.572l-19.58,4.979c-1.083,0.275-1.953,1.083-2.305,2.145 c-0.353,1.061-0.14,2.229,0.564,3.097L231.049,131.553z M234.825,125.793l17.557-4.458l-9.958-12.275l0.003,0l8.586,10.583 l1.374,1.693L234.825,125.793L234.825,125.793z M265.498,100.959L257.49,117.2l-0.002-0.003l8.005-16.238l-9.935-12.273 l0.001-0.002L265.498,100.959z"/> <path d="M169.69,260.775c2.071,0,4.054-0.374,5.905-1.025l46.643,80.813c-3.57,3.269-5.827,7.957-5.827,13.178 c0,9.811,7.981,17.793,17.792,17.793c9.827,0,17.821-7.982,17.821-17.793c0-3.354-0.944-6.483-2.555-9.166l85.437-84.04 c1.292-1.27,1.309-3.347,0.039-4.639c-1.27-1.291-3.346-1.309-4.638-0.038l-85.191,83.796c-3.019-2.354-6.8-3.771-10.914-3.771 c-2.255,0-4.405,0.44-6.393,1.212l-46.533-80.623c3.809-3.266,6.234-8.097,6.234-13.491c0-9.811-7.995-17.793-17.821-17.793 c-9.811,0-17.792,7.982-17.792,17.793c0,3.696,1.135,7.131,3.071,9.979L41.476,362.647c-1.302,1.259-1.338,3.335-0.08,4.638 c0.644,0.666,1.5,1.001,2.359,1.001c0.82,0,1.642-0.307,2.279-0.922l113.559-109.749 C162.465,259.603,165.941,260.775,169.69,260.775z M245.465,353.74c0,6.193-5.052,11.232-11.262,11.232c0,0-0.001,0-0.002,0 c6.208-0.001,11.259-5.04,11.259-11.232c0-6.229-5.051-11.296-11.259-11.298c0.001,0,0.001,0,0.001,0 C240.413,342.442,245.465,347.511,245.465,353.74z M180.952,242.981c0,6.193-5.051,11.233-11.261,11.233h-0.002 c6.208,0,11.259-5.04,11.259-11.233c0-6.194-5.051-11.232-11.259-11.233h0.001C175.9,231.748,180.952,236.787,180.952,242.981z"/> <path d="M117.65,417.328c0,1.811,1.469,3.279,3.28,3.279h198.087c1.811,0,3.279-1.469,3.279-3.279c0-1.812-1.469-3.28-3.279-3.28 H120.93C119.119,414.048,117.65,415.517,117.65,417.328z"/> <path d="M373.951,426.08h-137.01c-1.811,0-3.28,1.469-3.28,3.28c0,1.811,1.469,3.279,3.28,3.279h137.01 c1.811,0,3.279-1.469,3.279-3.279C377.23,427.549,375.762,426.08,373.951,426.08z"/> <path d="M405.143,426.08h-17.126c-1.812,0-3.28,1.469-3.28,3.28c0,1.811,1.469,3.279,3.28,3.279h17.126 c1.811,0,3.279-1.469,3.279-3.279C408.422,427.549,406.953,426.08,405.143,426.08z"/> <path d="M178.093,425.697h-64.925c-1.812,0-3.28,1.469-3.28,3.28s1.468,3.28,3.28,3.28h64.925c1.811,0,3.28-1.469,3.28-3.28 S179.904,425.697,178.093,425.697z"/> <path d="M141.875,202.086h43.952c1.811,0,3.28-1.468,3.28-3.28c0-1.811-1.469-3.28-3.28-3.28h-43.952 c-1.811,0-3.28,1.469-3.28,3.28C138.596,200.618,140.064,202.086,141.875,202.086z"/> <path d="M141.875,190.883h43.952c1.811,0,3.28-1.468,3.28-3.28c0-1.811-1.469-3.28-3.28-3.28h-43.952 c-1.811,0-3.28,1.469-3.28,3.28C138.596,189.415,140.064,190.883,141.875,190.883z"/> <path d="M141.875,179.746h43.952c1.811,0,3.28-1.469,3.28-3.28c0-1.812-1.469-3.28-3.28-3.28h-43.952 c-1.811,0-3.28,1.468-3.28,3.28C138.596,178.277,140.064,179.746,141.875,179.746z"/> <path d="M141.875,168.605h43.952c1.811,0,3.28-1.469,3.28-3.28c0-1.812-1.469-3.28-3.28-3.28h-43.952 c-1.811,0-3.28,1.468-3.28,3.28C138.596,167.136,140.064,168.605,141.875,168.605z"/> <path d="M462.487,379.361H445.27v21.064h17.218c2.316,0,4.2-1.869,4.2-4.165v-12.668 C466.688,381.259,464.804,379.361,462.487,379.361z"/> <path d="M294.607,386.678H415.42c1.812,0,3.28,1.469,3.28,3.279c0,1.812-1.469,3.28-3.28,3.28H294.607v7.188h132.646v-21.064 H294.607V386.678z"/> <polygon points="254.033,389.943 276.211,400.426 288.049,400.426 288.049,379.361 276.217,379.361 "/> <rect height="21.064" width="4.898" x="433.813" y="379.361"/> <path d="M315.847,204.04c-10.347,9.665-16.848,23.388-16.848,38.624c0,11.349,3.612,21.859,9.722,30.484l18.17-17.873 c-1.916-3.796-3.012-8.074-3.012-12.611c0-7.445,2.935-14.208,7.692-19.232L315.847,204.04z"/> <path d="M336.949,253.924c1.49,1.515,2.021,3.618,1.607,5.554c3.68,2.947,8.328,4.731,13.397,4.731 c11.862,0,21.513-9.666,21.513-21.546c0-11.845-9.65-21.481-21.513-21.481c-2.03,0-3.985,0.302-5.848,0.831l11.828,14.586 c2.116,2.61,1.713,6.454-0.896,8.567c-1.08,0.877-2.441,1.36-3.834,1.36c-1.846,0-3.57-0.821-4.732-2.253l-12.717-15.683 c-3.295,3.774-5.316,8.685-5.316,14.073c0,3.386,0.791,6.588,2.188,9.441C334.266,252.111,335.801,252.756,336.949,253.924z"/> <path d="M303.992,277.799c-7.246-9.854-11.553-21.995-11.553-35.135c0-17.289,7.447-32.847,19.271-43.725l-14.976-18.468 c-17.163,15.256-28.001,37.479-28.001,62.193c0,19.614,6.847,37.639,18.237,51.878L303.992,277.799z"/> <path d="M316.86,282.229c9.353,8.298,21.635,13.363,35.094,13.363c29.202,0,52.96-23.742,52.96-52.928 c0-29.184-23.758-52.926-52.96-52.926c-9.577,0-18.558,2.57-26.316,7.035l16.063,19.808c3.179-1.254,6.633-1.958,10.253-1.958 c15.479,0,28.072,12.58,28.072,28.042c0,15.498-12.593,28.106-28.072,28.106c-6.536,0-12.545-2.26-17.319-6.023L316.86,282.229z"/> <path d="M351.954,152.882c49.508,0,89.785,40.276,89.785,89.782c0,49.509-40.277,89.787-89.785,89.787 c-23.729,0-45.329-9.261-61.398-24.347l-21.231,20.883c21.486,20.578,50.602,33.249,82.63,33.249 c65.932,0,119.571-53.639,119.571-119.572c0-65.931-53.64-119.569-119.571-119.569c-25.47,0-49.079,8.039-68.496,21.665 l18.809,23.193C316.506,158.45,333.586,152.882,351.954,152.882z"/> <path d="M295.241,303.494c14.874,13.879,34.813,22.396,56.713,22.396c45.892,0,83.226-37.335,83.226-83.227 c0-45.888-37.334-83.222-83.226-83.222c-16.803,0-32.443,5.029-45.538,13.628l15.044,18.55c8.925-5.349,19.352-8.441,30.494-8.441 c32.819,0,59.521,26.686,59.521,59.485c0,32.802-26.701,59.489-59.521,59.489c-15.288,0-29.224-5.816-39.774-15.319 L295.241,303.494z"/> <path d="M292.602,175.375l-18.764-23.138c-25.365,21.941-41.451,54.335-41.451,90.427c0,29.529,10.773,56.579,28.576,77.46 l21.309-20.961c-12.544-15.442-20.098-35.097-20.098-56.5C262.174,215.896,273.959,191.838,292.602,175.375z"/> </g> </g> <g id="Layer_1"/> </g>
</svg>